PathFileType	4	(X/Y/Z)	marker_experimental.trc																																																																																																																
DataRate	CameraRate	NumFrames	NumMarkers	Units	OrigDataRate	OrigDataStartFrame	OrigNumFrames																																																																																																												
200	200	8	38	mm	200	1	600																																																																																																												
Frame#	Time	C7			T10			CLAV			STRN			RBAK			LASI			RASI			SACR			LT1			LT2			LT3			LS1			LS2			LS3			LHEE			LTOE			RT1			RT2			RT3			RS1			RS2			RS3			RHEE			RTOE			LKNE			LKNM			LANK			LANM			RKNM			RKNE			RANM			RANK			LAJC			LKJC			RAJC			RKJC			RHJC			LHJC		
		X1	Y1	Z1	X2	Y2	Z2	X3	Y3	Z3	X4	Y4	Z4	X5	Y5	Z5	X6	Y6	Z6	X7	Y7	Z7	X8	Y8	Z8	X9	Y9	Z9	X10	Y10	Z10	X11	Y11	Z11	X12	Y12	Z12	X13	Y13	Z13	X14	Y14	Z14	X15	Y15	Z15	X16	Y16	Z16	X17	Y17	Z17	X18	Y18	Z18	X19	Y19	Z19	X20	Y20	Z20	X21	Y21	Z21	X22	Y22	Z22	X23	Y23	Z23	X24	Y24	Z24	X25	Y25	Z25	X26	Y26	Z26	X27	Y27	Z27	X28	Y28	Z28	X29	Y29	Z29	X30	Y30	Z30	X31	Y31	Z31	X32	Y32	Z32	X33	Y33	Z33	X34	Y34	Z34	X35	Y35	Z35	X36	Y36	Z36	X37	Y37	Z37	X38	Y38	Z38
																																																																																																																			
1	0	-405.327179	995.938599	794.182068	-400.141815	822.312317	757.817749	-408.296539	952.009888	910.086121	-406.804047	821.141663	950.083374	-493.450806	940.734009	764.998718	-297.439606	654.900818	890.398499	-512.202637	650.939636	887.941833	-403.545013	700.258118	739.181396	-234.308151	487.515289	877.873352	-228.794861	399.067047	834.934753	-239.134613	413.696991	977.746216	-223.988998	238.630722	860.440369	-210.46785	205.143204	743.089722	-240.749191	142.678314	869.068848	-282.584534	58.314762	712.768555	-276.460571	49.221466	852.715393	-557.415649	488.950806	860.256897	-540.303894	402.369904	821.815674	-563.490295	424.011047	959.549683	-552.111267	252.411041	893.049927	-571.743774	218.881699	775.977783	-538.042297	157.047424	898.977905	-495.290222	56.873932	733.108521	-492.896149	49.484344	875.717285	-236.184753	332.31192	898.620422	-331.337585	307.805634	929.564941	-252.509109	43.757332	754.974548	-320.230743	39.996212	760.275452	-435.79892	321.618103	934.761841	-540.914856	325.463348	911.305542	-456.022552	56.839043	781.428772	-528.102295	43.878361	780.11969	-286.369926	41.876772	757.625	-283.761169	320.058777	914.092682	-492.062424	50.358702	780.774231	-488.356888	323.540726	923.033692	-481.151662	593.978205	820.176917	-324.811499	596.861811	821.965286
2	0.005	-405.350342	995.925293	794.162109	-400.159393	822.296326	757.80365	-408.335052	951.984375	910.035278	-406.848633	821.121094	950.08844	-493.459564	940.707642	764.969299	-297.47049	654.884277	890.40863	-512.234192	650.830566	887.651123	-403.544006	700.229187	739.17981	-234.35495	487.492615	877.921631	-228.806061	399.058014	834.964417	-239.151764	413.681091	977.771484	-223.984711	238.620605	860.482361	-210.456161	205.136398	743.114075	-240.731232	142.67131	869.0896	-282.579834	58.326538	712.786743	-276.443024	49.23201	852.714539	-557.463135	488.955963	860.220947	-540.349182	402.368988	821.799438	-563.565063	424.005737	959.50708	-552.176331	252.401062	893.068604	-571.792786	218.863708	775.993591	-538.109558	156.999725	898.88269	-495.310608	56.883121	733.109558	-492.906006	49.485859	875.714661	-236.181747	332.31015	898.65564	-331.361053	307.788422	929.606506	-252.498352	43.76897	754.983826	-320.21817	39.995651	760.278442	-435.903992	321.58371	934.794312	-541.008118	325.450989	911.307251	-456.143707	56.949738	781.089783	-528.117493	43.876949	780.124573	-286.358261	41.882311	757.631134	-283.7714	320.049286	914.131073	-492.1306	50.413344	780.607178	-488.456055	323.51735	923.050781	-481.063226	593.905077	819.929191	-324.722986	596.856033	821.936557
3	0.01	-405.374359	995.910156	794.143066	-400.175659	822.276978	757.793701	-408.374329	951.96051	909.991333	-406.890167	821.101196	950.092957	-493.470367	940.679932	764.93988	-297.500549	654.866028	890.421814	-512.270996	650.844543	887.727661	-403.54306	700.201477	739.17749	-234.397034	487.47229	877.964722	-228.821426	399.04776	834.996887	-239.173401	413.662415	977.799561	-223.984879	238.609711	860.523987	-210.443115	205.137589	743.138794	-240.722946	142.667221	869.108887	-282.569214	58.329533	712.808289	-276.431427	49.236195	852.713318	-557.51178	488.957153	860.18457	-540.390625	402.362488	821.78241	-563.649231	424.001923	959.461731	-552.243164	252.391968	893.079163	-571.851379	218.843781	776.005737	-538.166382	156.9599	898.823059	-495.327148	56.887939	733.110291	-492.916565	49.486835	875.712219	-236.189606	332.305542	898.692017	-331.384613	307.769073	929.646973	-252.490341	43.77742	754.992493	-320.203827	39.993336	760.281799	-436.01059	321.558197	934.830322	-541.095215	325.440491	911.306824	-456.187653	57.004177	781.029785	-528.131714	43.873585	780.125427	-286.347084	41.885378	757.637146	-283.787109	320.037307	914.169495	-492.159684	50.438881	780.577606	-488.552903	323.499344	923.068573	-481.12746	593.898315	820.002033	-324.782672	596.825804	821.963275
4	0.015	-405.399231	995.893372	794.124695	-400.190399	822.254272	757.787903	-408.414032	951.938171	909.953857	-406.92868	821.081787	950.095947	-493.48291	940.651001	764.910461	-297.529663	654.845886	890.437927	-512.311768	650.985352	888.174622	-403.542084	700.174988	739.1745	-234.433258	487.453796	878.00238	-228.840942	399.036377	835.031677	-239.198975	413.640991	977.829834	-223.989319	238.598053	860.564941	-210.431763	205.144989	743.167236	-240.722626	142.663971	869.126953	-282.55484	58.327164	712.828918	-276.425232	49.235119	852.712646	-557.561035	488.954132	860.147461	-540.427979	402.350494	821.764343	-563.742004	423.999298	959.413696	-552.309875	252.382111	893.081909	-571.917847	218.821304	776.013916	-538.228455	156.988464	898.977539	-495.339661	56.888275	733.110657	-492.927521	49.486843	875.710083	-236.206741	332.298492	898.728333	-331.408203	307.747864	929.685974	-252.485062	43.782719	755.000488	-320.18808	39.989452	760.285339	-436.11792	321.54129	934.869568	-541.176208	325.431305	911.304199	-456.160797	57.014458	781.238281	-528.144775	43.868229	780.122253	-286.336571	41.886086	757.642914	-283.807472	320.023178	914.207154	-492.152786	50.441344	780.680267	-488.647064	323.486297	923.086883	-481.345373	593.960759	820.398792	-324.992352	596.771077	822.04639
5	0.02	-405.424957	995.875061	794.106995	-400.20343	822.228699	757.785767	-408.453827	951.918091	909.921753	-406.964264	821.062622	950.09552	-493.496735	940.620789	764.881165	-297.557678	654.823853	890.456848	-512.352905	651.234924	888.928284	-403.541016	700.149536	739.170959	-234.461792	487.436249	878.03479	-228.86441	399.02417	835.068176	-239.227158	413.617218	977.861084	-223.997467	238.585617	860.604431	-210.42424	205.153625	743.203308	-240.728271	142.658157	869.143982	-282.539978	58.326477	712.84259	-276.42337	49.230522	852.713379	-557.609558	488.946564	860.109009	-540.460693	402.33316	821.744629	-563.84198	423.997009	959.363281	-552.374023	252.369492	893.078613	-571.988281	218.796036	776.017639	-538.305054	157.153473	899.546021	-495.348053	56.883873	733.110474	-492.938141	49.485195	875.70813	-236.229568	332.289551	898.763123	-331.43158	307.725037	929.722778	-252.482452	43.785027	755.007874	-320.171692	39.984505	760.289001	-436.223877	321.531921	934.910767	-541.251343	325.422272	911.298828	-456.079437	56.998447	781.666931	-528.15625	43.860935	780.115295	-286.327072	41.884766	757.648438	-283.830574	320.007294	914.242951	-492.117843	50.429691	780.891113	-488.73761	323.477097	923.104797	-481.689022	594.084052	821.064702	-325.32658	596.69665	822.177436
6	0.025	-405.451569	995.855713	794.089844	-400.214417	822.200867	757.786499	-408.493652	951.90094	909.893738	-406.997192	821.043579	950.089111	-493.511017	940.589722	764.852417	-297.584595	654.799866	890.477966	-512.390076	651.518433	889.765137	-403.539917	700.125061	739.166992	-234.481964	487.418701	878.063232	-228.891144	399.011383	835.105286	-239.256317	413.592041	977.892639	-224.008499	238.572601	860.641479	-210.419327	205.157333	743.250366	-240.738815	142.64682	869.161072	-282.526917	58.331314	712.847656	-276.424561	49.224129	852.715637	-557.655334	488.934235	860.068726	-540.488525	402.310883	821.722534	-563.947571	423.993683	959.310669	-552.433289	252.354019	893.071533	-572.057251	218.76915	776.016846	-538.382874	157.411163	900.367981	-495.352173	56.874512	733.109558	-492.947662	49.481182	875.706116	-236.254105	332.279022	898.795227	-331.454407	307.701294	929.756104	-252.482407	43.784676	755.014893	-320.155762	39.97942	760.292664	-436.325165	321.528503	934.952026	-541.321167	325.412018	911.289612	-455.978912	56.974796	782.174744	-528.165466	43.852013	780.104736	-286.319084	41.882048	757.653779	-283.854256	319.990158	914.275666	-492.072189	50.413404	781.13974	-488.823166	323.47026	923.120819	-482.064407	594.228495	821.804318	-325.694573	596.617247	822.323229
7	0.03	-405.479065	995.835571	794.073242	-400.223175	822.171631	757.789124	-408.533539	951.886292	909.868896	-407.028229	821.024841	950.074402	-493.524872	940.558105	764.824585	-297.610657	654.774048	890.500671	-512.421326	651.727844	890.378174	-403.538727	700.101379	739.16272	-234.495438	487.400635	878.091064	-228.920059	398.998505	835.141663	-239.28508	413.566711	977.924194	-224.021484	238.559555	860.674866	-210.414108	205.15033	743.306763	-240.754059	142.62886	869.179565	-282.51709	58.339046	712.848389	-276.427368	49.217091	852.718933	-557.696411	488.91748	860.026123	-540.511353	402.284515	821.697571	-564.056824	423.987732	959.255554	-552.486328	252.337646	893.063293	-572.118225	218.742828	776.011353	-538.439758	157.586609	900.911804	-495.351898	56.860245	733.107666	-492.955933	49.474274	875.703735	-236.279144	332.266846	898.824646	-331.47644	307.677826	929.784973	-252.48468	43.782112	755.021729	-320.141602	39.975544	760.296021	-436.418152	321.529419	934.991455	-541.38623	325.399567	911.275818	-455.905334	56.957371	782.562317	-528.171997	43.842152	780.091492	-286.313141	41.878828	757.658875	-283.877792	319.972336	914.30481	-492.038665	50.399761	781.326904	-488.902191	323.464493	923.133636	-482.344207	594.334344	822.347809	-325.970636	596.551858	822.436982
8	0.035	-405.507355	995.815125	794.057251	-400.229553	822.142151	757.792358	-408.572876	951.871826	909.847961	-407.058685	821.007324	950.051331	-493.537781	940.52655	764.797974	-297.636536	654.746704	890.524841	-512.449524	651.812317	890.637634	-403.537384	700.078613	739.158508	-234.50621	487.381958	878.122986	-228.950058	398.986053	835.175964	-239.312775	413.542969	977.955688	-224.035614	238.547287	860.703796	-210.406982	205.130936	743.362732	-240.773727	142.605087	869.200439	-282.509979	58.344177	712.851562	-276.430664	49.209881	852.722168	-557.731995	488.897217	859.980896	-540.529236	402.255249	821.669373	-564.167297	423.977753	959.197388	-552.532898	252.323273	893.05603	-572.165955	218.718735	776.001526	-538.475769	157.620224	901.026733	-495.346985	56.841663	733.104309	-492.963715	49.464344	875.7005	-236.307236	332.251831	898.852295	-331.498016	307.655945	929.809326	-252.489014	43.777802	755.028748	-320.130524	39.974377	760.298889	-436.501068	321.533234	935.028381	-541.447266	325.384979	911.257751	-455.881042	56.949787	782.736328	-528.175659	43.832325	780.077026	-286.309769	41.876089	757.663818	-283.902626	319.953888	914.330811	-492.02835	50.391056	781.406677	-488.974167	323.459106	923.143066	-482.47626	594.371773	822.579771	-326.101052	596.507888	822.497663
